<svg width="100" height="100" viewBox="0 0 100 100" fill="none" xmlns="http://www.w3.org/2000/svg">
  <rect x="10" y="20" width="80" height="60" rx="5" fill="none" stroke="white" stroke-width="3"/>
  <path d="M25 40 L25 30 Q25 25 35 25 L35 25 L45 25 L45 30 Q45 35 50 35 L50 35 L50 30 L50 45 L50 45 L50 70 Q50 75 70 80 L60 80 Q50 85 80 80 L40 80 Q30 80 30 70 L30 45 L35 45 L35 70 Q35 75 75 80 L60 80 Q50 85 80 80 L40 80 Q25 80 25 70 L25 75 70 80 L25 65 Q25 55 75 55 L25 45 L25 45 L35 45 L35 30 L35 45 L35 50 L35 55 L35 55 L35 70 L35 75 Q35 75 70 80 L30 80 Q30 85 85 80 L40 80 Q50 85 80 80 L60 80 Q50 85 80 80 L40 80 Q25 80 25 70 L25 75 70 80 L25 65 Q25 55 75 55 L25 45 L35 45 L35 30 L35 45 L35 50 L35 55 L35 70 L35 75 Q35 75 70 80 L30 80 Q30 85 85 80 L40 80 Q50 85 80 80 L60 80 Q50 85 80 80 L40 80 Q25 80 25 70 L25 75 70 80 L25 65 Q25 55 75 55 L25 45 L35 45 L35 30 L35 45 L35 50 L35 55 L35 70 L35 75 Q35 75 70 80 L30 80 Q30 85 85 80 L40 80 Q50 85 80 80 L60 80 Q50 85 80 80 L40 80 Q25 80 25 70 L25 75 70 80 L25 65 Q25 55 75 55 L25 45 L35 45 L35 30 L35 45 L35 50 L35 55 L35 70 L35 75 Q35 75 70 80 L30 80 Q30 85 85 80 L40 80 Q50 85 80 80 L60 80 Q50 85 80 80 L40 80 Q25 80 25 70 L25 75 70 80 L25 65 Q25 55 75 55 L25 45 L35 45 L35 30 L35 45 L35 50 L35 55 L35 70 L35 75 Q35 75 70 80 L30 80 Q30 85 85 80 40 80 Q50 85 80 80 L60 80 Q50 85 80 80 L40 80 Q25 80 25 70 L25 75 70 80 L25 65 Q25 55 75 55 L25 45 L35 45 L35 30 L35 45 L35 50 L35 55 L35 70 L35 75 Q35 75 70 80 L30 80 Q30 85 85 80 80 L40 80 Q50 85 80 80 L60 80 Q50 85 80 80 L40 80 Q25 80 25 70 L25 75 70 80 L25 65 Q25 55 75 55 L25 45 L35 45 L35 30 L35 45 L35 50 L35 55 L35 70 L35 75 Q35 75 70 80 L30 80 Q30 85 85 80 40 80 Q50 85 80 80 L60 80" stroke="white" stroke-width="3" stroke-linecap="round" stroke-linejoin="round"/>
  <text x="50" y="72" text-anchor="middle" fill="white" font-size="10" font-weight="bold">ISUZU</text>
</svg>
