<svg width="100" height="100" viewBox="0 0 100 100" fill="none" xmlns="http://www.w3.org/2000/svg">
  <circle cx="50" cy="50" r="40" fill="none" stroke="white" stroke-width="3"/>
  <path d="M20 30 Q30 20 50 20 L20 50 L20 50 L20 70 L20 70 L20 60 Q20 65 35 65 30 50 20" stroke="white" stroke-width="3" stroke-linecap="round" stroke-linejoin="round"/>
  <circle cx="20" cy="80" r="12" fill="none" stroke="white" stroke-width="2"/>
  <circle cx="80" cy="30" r="8" fill="none" stroke="white" stroke-width="2"/>
  <circle cx="80" cy="70" r="8" fill="none" stroke="white" stroke-width="2"/>
  <path d="M20 70 Q20 90 50 90 L80 90 Q50 90 50 50 50 50 L80 50" stroke="white" stroke-width="2" stroke-linecap="round" stroke-linejoin="round"/>
  <path d="M50 50 Q55 35 50 20 L50 20" stroke="white" stroke-width="2" stroke-linecap="round" stroke-linejoin="round"/>
  <rect x="40" y="40" width="20" height="20" fill="none" stroke="white" stroke-width="2" stroke-linecap="round" stroke-linejoin="round"/>
  <rect x="45" y="45" width="10" height="10" fill="white"/>
  <path d="M50 80 L50 90 L80 90 L50 90" stroke="white" stroke-width="2" stroke-linecap="round" stroke-linejoin="round"/>
  <path d="M50 10 Q50 15 50 20 L50 20 L50 30 L50 30 L50 50 L50 50" stroke="white" stroke-width="2" stroke-linecap="round" stroke-linejoin="round"/>
  <text x="50" y="100" text-anchor="middle" fill="white" font-size="9" font-weight="bold">LAND</text>
  <text x="50" y="112" text-anchor="middle" fill="white" font-size="6" font-weight="bold">ROVER</text>
</svg>
