<svg width="100" height="100" viewBox="0 0 100 100" fill="none" xmlns="http://www.w3.org/2000/svg">
  <rect x="5" y="5" width="90" height="90" rx="10" fill="#eb0a1e"/>
  <path d="M20 80 L80 80 L80 50 Q80 30 50 20 Q20 30 20 50 Q20 70 50 80 L50 80 Q30 80 30 50 Q10 50 10 20 Q10 10 30 30 L30 50 Q10 50 20 70 L50 70 Q70 70 80 30 80 L70 50 Q70 30 50 80 20 Q80 20 80 10 50 30 Q80 10 30 50 20 70" stroke="white" stroke-width="3" stroke-linecap="round" stroke-linejoin="round"/>
  <text x="50" y="55" text-anchor="middle" fill="white" font-size="14" font-weight="bold">TOYOTA</text>
</svg>
